<!-- <svg id="visual" viewBox="0 0 1400 600" width="1400" height="600" xmlns="http://www.w3.org/2000/svg" xmlns:xlink="http://www.w3.org/1999/xlink" version="1.1"><path d="M0 55L47 55L47 125L93 125L93 48L140 48L140 114L187 114L187 111L233 111L233 60L280 60L280 88L327 88L327 59L373 59L373 133L420 133L420 77L467 77L467 134L513 134L513 105L560 105L560 75L607 75L607 109L653 109L653 82L700 82L700 111L747 111L747 106L793 106L793 68L840 68L840 112L887 112L887 64L933 64L933 91L980 91L980 49L1027 49L1027 125L1073 125L1073 93L1120 93L1120 54L1167 54L1167 107L1213 107L1213 120L1260 120L1260 118L1307 118L1307 60L1353 60L1353 66L1400 66L1400 62L1400 0L1400 0L1353 0L1353 0L1307 0L1307 0L1260 0L1260 0L1213 0L1213 0L1167 0L1167 0L1120 0L1120 0L1073 0L1073 0L1027 0L1027 0L980 0L980 0L933 0L933 0L887 0L887 0L840 0L840 0L793 0L793 0L747 0L747 0L700 0L700 0L653 0L653 0L607 0L607 0L560 0L560 0L513 0L513 0L467 0L467 0L420 0L420 0L373 0L373 0L327 0L327 0L280 0L280 0L233 0L233 0L187 0L187 0L140 0L140 0L93 0L93 0L47 0L47 0L0 0Z" fill="#3c0366" stroke-linecap="square" stroke-linejoin="miter"/></svg> -->
<svg id="visual" viewBox="0 0 1400 600" width="1400" height="600" xmlns="http://www.w3.org/2000/svg" xmlns:xlink="http://www.w3.org/1999/xlink" version="1.1"><path d="M0 121L47 121L47 228L93 228L93 107L140 107L140 130L187 130L187 175L233 175L233 222L280 222L280 209L327 209L327 112L373 112L373 191L420 191L420 244L467 244L467 134L513 134L513 216L560 216L560 156L607 156L607 155L653 155L653 116L700 116L700 175L747 175L747 130L793 130L793 169L840 169L840 194L887 194L887 123L933 123L933 192L980 192L980 210L1027 210L1027 145L1073 145L1073 242L1120 242L1120 171L1167 171L1167 207L1213 207L1213 179L1260 179L1260 158L1307 158L1307 129L1353 129L1353 250L1400 250L1400 249L1400 0L1400 0L1353 0L1353 0L1307 0L1307 0L1260 0L1260 0L1213 0L1213 0L1167 0L1167 0L1120 0L1120 0L1073 0L1073 0L1027 0L1027 0L980 0L980 0L933 0L933 0L887 0L887 0L840 0L840 0L793 0L793 0L747 0L747 0L700 0L700 0L653 0L653 0L607 0L607 0L560 0L560 0L513 0L513 0L467 0L467 0L420 0L420 0L373 0L373 0L327 0L327 0L280 0L280 0L233 0L233 0L187 0L187 0L140 0L140 0L93 0L93 0L47 0L47 0L0 0Z" fill="#3c0366" stroke-linecap="square" stroke-linejoin="miter"/></svg>